[h264 @ 0x556801c88c80] Reinit context to 720x1280, pix_fmt: yuv420p
Input #0, mov,mp4,m4a,3gp,3g2,mj2, from '/var/www/html/project/media/video/original/tetto_.mp4':
  Metadata:
    major_brand     : mp42
    minor_version   : 1
    compatible_brands: isommp41mp42
    creation_time   : 2023-05-23T16:27:43.000000Z
  Duration: 00:00:23.16, start: 0.000000, bitrate: 3319 kb/s
    Stream #0:0(eng): Audio: aac (LC) (mp4a / 0x6134706D), 44100 Hz, stereo, fltp, 130 kb/s (default)
    Metadata:
      creation_time   : 2023-05-23T16:27:43.000000Z
      handler_name    : Core Media Audio
    Stream #0:1(und): Video: h264 (Main), 1 reference frame (avc1 / 0x31637661), yuv420p(tv, bt709, progressive, left), 720x1280 [SAR 1:1 DAR 9:16], 3123 kb/s, 25 fps, 25 tbr, 25k tbn, 50k tbc (default)
    Metadata:
      creation_time   : 2023-05-23T16:27:43.000000Z
      handler_name    : Core Media Video
Input #1, png_pipe, from '/var/www/html/project/static/images/templates/logo_vertical.png':
  Duration: N/A, bitrate: N/A
    Stream #1:0: Video: png, 1 reference frame, rgba(pc), 1920x1080 [SAR 2835:2835 DAR 16:9], 25 tbr, 25 tbn, 25 tbc
[h264 @ 0x556801c8c400] Reinit context to 1280x720, pix_fmt: yuv420p
Input #2, mov,mp4,m4a,3gp,3g2,mj2, from '/var/www/html/project/static/images/templates/Codino.mp4':
  Metadata:
    major_brand     : mp42
    minor_version   : 1
    compatible_brands: isommp41mp42
    creation_time   : 2021-07-11T07:02:58.000000Z
  Duration: 00:00:02.00, start: 0.000000, bitrate: 1007 kb/s
    Stream #2:0(ita): Audio: aac (LC) (mp4a / 0x6134706D), 44100 Hz, stereo, fltp, 102 kb/s (default)
    Metadata:
      creation_time   : 2021-07-11T07:02:58.000000Z
      handler_name    : Core Media Audio
    Stream #2:1(und): Video: h264 (High), 1 reference frame (avc1 / 0x31637661), yuv420p(tv, bt709, progressive, left), 1280x720 [SAR 1:1 DAR 16:9], 813 kb/s, 25 fps, 25 tbr, 25k tbn, 50k tbc (default)
    Metadata:
      creation_time   : 2021-07-11T07:02:58.000000Z
      handler_name    : Core Media Video
[Parsed_scale_1 @ 0x556801cfe0c0] w:1280 h:720 flags:'bilinear' interl:0
[Parsed_scale_4 @ 0x556801d04ec0] w:-1 h:720 flags:'bilinear' interl:0
[Parsed_scale_7 @ 0x556801e42700] w:1280 h:720 flags:'bilinear' interl:0
[Parsed_scale_9 @ 0x556801e44580] w:1280 h:720 flags:'bilinear' interl:0
Stream mapping:
  Stream #0:0 (aac) -> concat:in0:a0
  Stream #0:1 (h264) -> split
  Stream #1:0 (png) -> scale
  Stream #2:0 (aac) -> concat:in1:a0
  Stream #2:1 (h264) -> scale
  concat:out:v0 -> Stream #0:0 (libx264)
  concat:out:a0 -> Stream #0:1 (aac)
Press [q] to stop, [?] for help
[h264 @ 0x556801cb9b00] Reinit context to 720x1280, pix_fmt: yuv420p
[h264 @ 0x556802138f40] Reinit context to 1280x720, pix_fmt: yuv420p
[Parsed_scale_1 @ 0x55680302d600] w:1280 h:720 flags:'bilinear' interl:0
[Parsed_scale_4 @ 0x55680302f100] w:-1 h:720 flags:'bilinear' interl:0
[Parsed_scale_7 @ 0x5568030326c0] w:1280 h:720 flags:'bilinear' interl:0
[Parsed_scale_9 @ 0x556803033e40] w:1280 h:720 flags:'bilinear' interl:0
[graph 0 input from stream 0:1 @ 0x556803038580] w:720 h:1280 pixfmt:yuv420p tb:1/25000 fr:25/1 sar:1/1 sws_param:flags=2
[graph 0 input from stream 1:0 @ 0x5568030395c0] w:1920 h:1080 pixfmt:rgba tb:1/25 fr:25/1 sar:2835/2835 sws_param:flags=2
[graph 0 input from stream 2:1 @ 0x55680302f3c0] w:1280 h:720 pixfmt:yuv420p tb:1/25000 fr:25/1 sar:1/1 sws_param:flags=2
[graph_0_in_0_0 @ 0x556803039a00] tb:1/44100 samplefmt:fltp samplerate:44100 chlayout:0x3
[graph_0_in_2_0 @ 0x556803036800] tb:1/44100 samplefmt:fltp samplerate:44100 chlayout:0x3
[Parsed_scale_1 @ 0x55680302d600] w:720 h:1280 fmt:yuv420p sar:1/1 -> w:1280 h:720 fmt:yuv420p sar:81/256 flags:0x2
[Parsed_boxblur_2 @ 0x55680302dac0] luma_radius:36 luma_power:1 chroma_radius:18 chroma_power:1 alpha_radius:36 alpha_power:1 w:1280 chroma_w:640 h:720 chroma_h:360
[Parsed_setsar_3 @ 0x55680302e200] w:1280 h:720 sar:81/256 dar:9/16 -> sar:1/1 dar:16/9
[Parsed_scale_4 @ 0x55680302f100] w:720 h:1280 fmt:yuv420p sar:1/1 -> w:405 h:720 fmt:yuva420p sar:1/1 flags:0x2
[Parsed_setsar_5 @ 0x55680302ffc0] w:405 h:720 sar:1/1 dar:9/16 -> sar:1/1 dar:9/16
[Parsed_overlay_6 @ 0x556803031300] main w:1280 h:720 fmt:yuv420p overlay w:405 h:720 fmt:yuva420p
[Parsed_overlay_6 @ 0x556803031300] [framesync @ 0x5568030317a8] Selected 1/25000 time base
[Parsed_overlay_6 @ 0x556803031300] [framesync @ 0x5568030317a8] Sync level 2
[Parsed_scale_7 @ 0x5568030326c0] w:1920 h:1080 fmt:rgba sar:2835/2835 -> w:1280 h:720 fmt:yuva420p sar:1/1 flags:0x2
[Parsed_setsar_8 @ 0x5568030331c0] w:1280 h:720 sar:1/1 dar:16/9 -> sar:1/1 dar:16/9
[Parsed_overlay_11 @ 0x5568030354c0] main w:1280 h:720 fmt:yuv420p overlay w:1280 h:720 fmt:yuva420p
[Parsed_overlay_11 @ 0x5568030354c0] [framesync @ 0x556803035628] Selected 1/25000 time base
[Parsed_overlay_11 @ 0x5568030354c0] [framesync @ 0x556803035628] Sync level 2
[Parsed_scale_9 @ 0x556803033e40] w:1280 h:720 fmt:yuv420p sar:1/1 -> w:1280 h:720 fmt:yuv420p sar:1/1 flags:0x2
[Parsed_setsar_10 @ 0x556803034940] w:1280 h:720 sar:1/1 dar:16/9 -> sar:1/1 dar:16/9
[libx264 @ 0x556801cff340] using SAR=1/1
[libx264 @ 0x556801cff340] using cpu capabilities: MMX2 SSE2Fast SSSE3 SSE4.2 AVX FMA3 BMI2 AVX2
[libx264 @ 0x556801cff340] profile High, level 3.1
[libx264 @ 0x556801cff340] 264 - core 155 r2917 0a84d98 - H.264/MPEG-4 AVC codec - Copyleft 2003-2018 - http://www.videolan.org/x264.html - options: cabac=1 ref=1 deblock=1:0:0 analyse=0x3:0x113 me=hex subme=2 psy=1 psy_rd=1.00:0.00 mixed_ref=0 me_range=16 chroma_me=1 trellis=0 8x8dct=1 cqm=0 deadzone=21,11 fast_pskip=1 chroma_qp_offset=0 threads=22 lookahead_threads=5 sliced_threads=0 nr=0 decimate=1 interlaced=0 bluray_compat=0 constrained_intra=0 bframes=3 b_pyramid=2 b_adapt=1 b_bias=0 direct=1 weightb=1 open_gop=0 weightp=1 keyint=250 keyint_min=25 scenecut=40 intra_refresh=0 rc_lookahead=10 rc=crf mbtree=1 crf=18.0 qcomp=0.60 qpmin=0 qpmax=69 qpstep=4 ip_ratio=1.40 aq=1:1.00
Output #0, mp4, to '/var/www/html/project/media/video/watermarks/tetto_.mp4':
  Metadata:
    major_brand     : mp42
    minor_version   : 1
    compatible_brands: isommp41mp42
    encoder         : Lavf58.29.100
    Stream #0:0: Video: h264 (libx264), 1 reference frame (avc1 / 0x31637661), yuv420p(progressive), 1280x720 [SAR 1:1 DAR 16:9], q=-1--1, 25 fps, 12800 tbn, 25 tbc (default)
    Metadata:
      encoder         : Lavc58.54.100 libx264
    Side data:
      cpb: bitrate max/min/avg: 0/0/0 buffer size: 0 vbv_delay: -1
    Stream #0:1: Audio: aac (LC) (mp4a / 0x6134706D), 44100 Hz, stereo, fltp, delay 1024, 128 kb/s (default)
    Metadata:
      encoder         : Lavc58.54.100 aac
[Parsed_concat_12 @ 0x5568030365c0] EOF on in0:a0, 1 streams left in segment.
[Parsed_overlay_6 @ 0x556803031300] [framesync @ 0x5568030317a8] Sync level 1
[Parsed_overlay_6 @ 0x556803031300] [framesync @ 0x5568030317a8] Sync level 0
[Parsed_overlay_11 @ 0x5568030354c0] [framesync @ 0x556803035628] Sync level 0
[Parsed_concat_12 @ 0x5568030365c0] EOF on in0:v0, 0 streams left in segment.
[Parsed_concat_12 @ 0x5568030365c0] Segment finished at pts=23172064
[Parsed_concat_12 @ 0x5568030365c0] EOF on in1:a0, 1 streams left in segment.
[Parsed_concat_12 @ 0x5568030365c0] EOF on in1:v0, 0 streams left in segment.
[Parsed_concat_12 @ 0x5568030365c0] Segment finished at pts=25190749
No more output streams to write to, finishing.
frame=  629 fps= 32 q=-1.0 Lsize=    7069kB time=00:00:25.19 bitrate=2298.5kbits/s speed= 1.3x    
[AVIOContext @ 0x556801c85500] Statistics: 0 seeks, 38 writeouts
video:6661kB audio:386kB subtitle:0kB other streams:0kB global headers:0kB muxing overhead: 0.309045%
Input file #0 (/var/www/html/project/media/video/original/tetto_.mp4):
  Input stream #0:0 (audio): 1000 packets read (378858 bytes); 998 frames decoded (1021888 samples); 
  Input stream #0:1 (video): 579 packets read (9043153 bytes); 579 frames decoded; 
  Total: 1579 packets (9422011 bytes) demuxed
Input file #1 (/var/www/html/project/static/images/templates/logo_vertical.png):
  Input stream #1:0 (video): 1 packets read (93903 bytes); 1 frames decoded; 
  Total: 1 packets (93903 bytes) demuxed
Input file #2 (/var/www/html/project/static/images/templates/Codino.mp4):
  Input stream #2:0 (audio): 89 packets read (26579 bytes); 87 frames decoded (89024 samples); 
  Input stream #2:1 (video): 50 packets read (203365 bytes); 50 frames decoded; 
  Total: 139 packets (229944 bytes) demuxed
Output file #0 (/var/www/html/project/media/video/watermarks/tetto_.mp4):
  Output stream #0:0 (video): 629 frames encoded; 629 packets muxed (6820818 bytes); 
  Output stream #0:1 (audio): 1085 frames encoded (1110912 samples); 1086 packets muxed (395292 bytes); 
  Total: 1715 packets (7216110 bytes) muxed
[AVIOContext @ 0x556801cfdb40] Statistics: 2 seeks, 31 writeouts
[libx264 @ 0x556801cff340] frame I:4     Avg QP:12.71  size: 39654
[libx264 @ 0x556801cff340] frame P:184   Avg QP:16.88  size: 20597
[libx264 @ 0x556801cff340] frame B:441   Avg QP:18.58  size:  6512
[libx264 @ 0x556801cff340] consecutive B-frames:  3.7%  6.0%  7.6% 82.7%
[libx264 @ 0x556801cff340] mb I  I16..4: 44.0% 34.1% 21.9%
[libx264 @ 0x556801cff340] mb P  I16..4: 17.3% 28.0%  5.0%  P16..4: 15.0% 10.0%  5.1%  0.0%  0.0%    skip:19.6%
[libx264 @ 0x556801cff340] mb B  I16..4:  3.8%  2.5%  0.2%  B16..8: 24.4%  9.4%  0.9%  direct:10.0%  skip:48.8%  L0:43.0% L1:45.8% BI:11.1%
[libx264 @ 0x556801cff340] 8x8 transform intra:51.1% inter:32.7%
[libx264 @ 0x556801cff340] coded y,uvDC,uvAC intra: 35.8% 42.3% 5.1% inter: 7.1% 19.8% 0.4%
[libx264 @ 0x556801cff340] i16 v,h,dc,p: 20% 29%  9% 42%
[libx264 @ 0x556801cff340] i8 v,h,dc,ddl,ddr,vr,hd,vl,hu: 13% 41% 13%  5%  7%  4%  9%  4%  4%
[libx264 @ 0x556801cff340] i4 v,h,dc,ddl,ddr,vr,hd,vl,hu: 24% 21% 15%  6%  9%  7%  7%  5%  6%
[libx264 @ 0x556801cff340] i8c dc,h,v,p: 50% 30% 14%  7%
[libx264 @ 0x556801cff340] Weighted P-Frames: Y:3.8% UV:0.0%
[libx264 @ 0x556801cff340] kb/s:2168.56
[aac @ 0x556801e44880] Qavg: 2020.437
[AVIOContext @ 0x556801c8e500] Statistics: 38333967 bytes read, 1125 seeks
[AVIOContext @ 0x556801c9c1c0] Statistics: 93903 bytes read, 0 seeks
[AVIOContext @ 0x556801c96b00] Statistics: 1530915 bytes read, 42 seeks
